<?xml version="1.0" encoding="UTF-8" standalone="no"?>
<svg
   xmlns:dc="http://purl.org/dc/elements/1.1/"
   xmlns:cc="http://creativecommons.org/ns#"
   xmlns:rdf="http://www.w3.org/1999/02/22-rdf-syntax-ns#"
   xmlns:svg="http://www.w3.org/2000/svg"
   xmlns="http://www.w3.org/2000/svg"
   xmlns:sodipodi="http://sodipodi.sourceforge.net/DTD/sodipodi-0.dtd"
   xmlns:inkscape="http://www.inkscape.org/namespaces/inkscape"
   version="1.1"
   id="Layer_1"
   x="0px"
   y="0px"
   width="55.757435"
   height="78.071999"
   viewBox="0 0 55.757435 78.071999"
   enable-background="new 0 0 100 100"
   xml:space="preserve"
   inkscape:version="0.48.4 r9939"
   sodipodi:docname="lazy.svg"><metadata
     id="metadata3088"><rdf:RDF><cc:Work
         rdf:about=""><dc:format>image/svg+xml</dc:format><dc:type
           rdf:resource="http://purl.org/dc/dcmitype/StillImage" /></cc:Work></rdf:RDF></metadata><defs
     id="defs3086" /><sodipodi:namedview
     pagecolor="#ffffff"
     bordercolor="#666666"
     borderopacity="1"
     objecttolerance="10"
     gridtolerance="10"
     guidetolerance="10"
     inkscape:pageopacity="0"
     inkscape:pageshadow="2"
     inkscape:window-width="933"
     inkscape:window-height="683"
     id="namedview3084"
     showgrid="false"
     fit-margin-top="0"
     fit-margin-left="0"
     fit-margin-right="0"
     fit-margin-bottom="0"
     inkscape:zoom="2.36"
     inkscape:cx="9.8321922"
     inkscape:cy="37.072"
     inkscape:window-x="203"
     inkscape:window-y="223"
     inkscape:window-maximized="0"
     inkscape:current-layer="Layer_1" /><g
     id="Captions"
     transform="translate(-40.167808,-9)" /><g
     id="Your_Icon"
     transform="translate(-40.167808,-9)"><path
       d="m 56.809,28.396 c 5.314,0 9.66,-4.343 9.66,-9.661 0,-5.392 -4.346,-9.735 -9.66,-9.735 -3.896,0 -7.339,2.321 -8.837,5.691 -0.599,1.198 -0.898,2.621 -0.898,4.044 0,1.422 0.299,2.77 0.898,4.043 1.496,3.296 4.94,5.618 8.837,5.618 z m 11.63,38.34 c 1.287,-3.342 2.108,-6.596 3.401,-10.108 -4.418,0 -6.973,-0.146 -11.329,-0.03 -3.445,0 -4.902,1.977 -6.025,4.373 -2.17,5.69 -4.343,11.456 -6.516,17.147 -1.085,2.968 -2.278,5.981 -3.371,8.952 h 11.947 c 2.397,-7.021 4.763,-13.555 7.562,-20.334 h 4.331 z M 94.893,53.172 c -0.311,-0.77 -0.664,-1.52 -1.037,-2.26 -0.223,-0.444 -1.34,-1.927 -1.254,-2.373 0.9,-4.643 1.93,-9.307 2.828,-13.95 0.756,-3.659 -0.803,-5.954 -2.973,-6.853 -2.846,-1.198 -4.572,-1.886 -7.342,-3.084 -1.199,-0.524 -2.398,-1.049 -3.67,-1.572 -3.67,-1.798 -6.143,-2.282 -9.812,0.224 -6.891,4.343 -14.584,9.294 -21.474,13.713 0.9,-2.396 2.298,-5.325 3.199,-7.723 -1.873,-0.672 -3.517,-1.421 -5.389,-2.17 -0.299,-0.15 -0.599,-0.225 -0.898,-0.375 l -0.149,0.375 c -2.138,4.518 -4.911,9.987 -6.56,14.479 -1.092,3.415 2.628,6.088 5.994,4.999 0.075,0 10.525,-4.801 14.792,-6.673 4.793,5.466 9.511,11.008 14.302,16.475 -2.396,1.496 -2.927,1.912 -4.041,5.316 -2.966,8.45 -5.931,16.901 -8.896,25.352 H 74.98 l 7.131,-20.083 c 0.748,0.075 2.18,0.198 3.004,0.198 2.367,0 4.678,0.065 6.824,-1.117 4.618,-2.547 4.659,-8.625 2.954,-12.898 z m -4.612,1.135 h -7.49 l 2.324,-12.356 0.373,-1.871 -0.373,-0.524 -5.244,-7.49 5.244,1.274 2.77,0.599 -3.508,19.33 5.914,0.008 -0.01,1.03 z"
       id="path3082"
       fill="#510922"
       inkscape:connector-curvature="0" /></g></svg>
