<?xml version="1.0" encoding="UTF-8" standalone="no"?>
<!-- Created with Inkscape (http://www.inkscape.org/) -->

<svg
   xmlns:dc="http://purl.org/dc/elements/1.1/"
   xmlns:cc="http://creativecommons.org/ns#"
   xmlns:rdf="http://www.w3.org/1999/02/22-rdf-syntax-ns#"
   xmlns:svg="http://www.w3.org/2000/svg"
   xmlns="http://www.w3.org/2000/svg"
   xmlns:sodipodi="http://sodipodi.sourceforge.net/DTD/sodipodi-0.dtd"
   xmlns:inkscape="http://www.inkscape.org/namespaces/inkscape"
   width="710.60675"
   height="628.52466"
   id="svg2"
   version="1.1"
   inkscape:version="0.48.4 r9939"
   sodipodi:docname="New document 1">
  <defs
     id="defs4" />
  <sodipodi:namedview
     id="base"
     pagecolor="#ffffff"
     bordercolor="#666666"
     borderopacity="1.0"
     inkscape:pageopacity="0.0"
     inkscape:pageshadow="2"
     inkscape:zoom="0.7"
     inkscape:cx="90.429707"
     inkscape:cy="632.90944"
     inkscape:document-units="px"
     inkscape:current-layer="layer1"
     showgrid="false"
     fit-margin-top="0"
     fit-margin-left="0"
     fit-margin-right="0"
     fit-margin-bottom="0"
     inkscape:window-width="1347"
     inkscape:window-height="1200"
     inkscape:window-x="455"
     inkscape:window-y="80"
     inkscape:window-maximized="0" />
  <metadata
     id="metadata7">
    <rdf:RDF>
      <cc:Work
         rdf:about="">
        <dc:format>image/svg+xml</dc:format>
        <dc:type
           rdf:resource="http://purl.org/dc/dcmitype/StillImage" />
        <dc:title></dc:title>
      </cc:Work>
    </rdf:RDF>
  </metadata>
  <g
     inkscape:label="Layer 1"
     inkscape:groupmode="layer"
     id="layer1"
     transform="translate(-21.622948,-400.93389)">
    <g
       transform="matrix(13.121831,0,0,13.121831,-4.6207144,609.55997)"
       id="data">
      <path
         style="fill:#000000"
         inkscape:connector-curvature="0"
         d="M 16,0 C 9.256,0 2,2.033 2,6.5 v 19 c 0,4.465 7.256,6.5 14,6.5 6.743,0 14,-2.035 14,-6.5 V 6.5 C 30,2.033 22.742,0 16,0 z M 28,25.5 C 28,27.984 22.627,30 16,30 9.372,30 4,27.984 4,25.5 V 21.764 C 6.066,23.893 11.05,25 16,25 c 4.95,0 9.934,-1.107 12,-3.236 V 25.5 z m 0,-6 H 27.996 C 27.996,19.51 28,19.521 28,19.531 28,22 22.627,24 16,24 9.373,24 4,22 4,19.531 4,19.521 4.004,19.51 4.004,19.5 H 4 V 15.764 C 6.066,17.893 11.05,19 16,19 c 4.95,0 9.934,-1.107 12,-3.236 V 19.5 z m 0,-6 H 27.996 C 27.996,13.51 28,13.521 28,13.531 28,16 22.627,18 16,18 9.373,18 4,16 4,13.531 4,13.521 4.004,13.51 4.004,13.5 H 4 V 10.064 C 6.621,12.061 11.425,13 16,13 c 4.575,0 9.379,-0.939 12,-2.936 V 13.5 z M 16,11 C 9.372,11 4,8.984 4,6.5 4,4.014 9.372,2 16,2 22.627,2 28,4.014 28,6.5 28,8.984 22.627,11 16,11 z"
         id="path3161" />
      <circle
         d="m 26,26 c 0,0.552285 -0.447715,1 -1,1 -0.552285,0 -1,-0.447715 -1,-1 0,-0.552285 0.447715,-1 1,-1 0.552285,0 1,0.447715 1,1 z"
         style="fill:#000000"
         sodipodi:ry="1"
         sodipodi:rx="1"
         sodipodi:cy="26"
         sodipodi:cx="25"
         cx="25"
         cy="26"
         r="1"
         id="circle3163" />
      <circle
         d="m 26,20 c 0,0.552285 -0.447715,1 -1,1 -0.552285,0 -1,-0.447715 -1,-1 0,-0.552285 0.447715,-1 1,-1 0.552285,0 1,0.447715 1,1 z"
         style="fill:#000000"
         sodipodi:ry="1"
         sodipodi:rx="1"
         sodipodi:cy="20"
         sodipodi:cx="25"
         cx="25"
         cy="20"
         r="1"
         id="circle3165" />
      <circle
         d="m 26,14 c 0,0.552285 -0.447715,1 -1,1 -0.552285,0 -1,-0.447715 -1,-1 0,-0.552285 0.447715,-1 1,-1 0.552285,0 1,0.447715 1,1 z"
         style="fill:#000000"
         sodipodi:ry="1"
         sodipodi:rx="1"
         sodipodi:cy="14"
         sodipodi:cx="25"
         cx="25"
         cy="14"
         r="1"
         id="circle3167" />
    </g>
    <g
       transform="matrix(4.05716,0,0,4.05716,337.00956,400.93161)"
       id="g3553">
      <path
         inkscape:connector-curvature="0"
         d="m 58.278,66.48 c -0.898,0.106 -1.828,-0.199 -2.496,-0.91 -1.11,-1.187 -1.057,-3.051 0.131,-4.161 l 7.834,-7.351 c 1.189,-1.113 3.053,-1.058 4.167,0.125 1.112,1.189 1.056,3.058 -0.132,4.174 l -7.834,7.35 c -0.479,0.443 -1.069,0.702 -1.67,0.773 z"
         id="path3555" />
    </g>
    <g
       transform="matrix(4.05716,0,0,4.05716,337.00956,400.93161)"
       id="g3557">
      <path
         inkscape:connector-curvature="0"
         d="m 51.757,60.95 c -0.898,0.104 -1.832,-0.202 -2.499,-0.912 -1.111,-1.183 -1.055,-3.049 0.134,-4.16 l 7.834,-7.353 c 1.188,-1.112 3.049,-1.056 4.166,0.129 1.111,1.189 1.055,3.054 -0.131,4.169 l -7.839,7.351 c -0.476,0.445 -1.066,0.705 -1.665,0.776 z"
         id="path3559" />
    </g>
    <g
       transform="matrix(4.05716,0,0,4.05716,337.00956,400.93161)"
       id="g3561">
      <path
         inkscape:connector-curvature="0"
         d="m 72.97,76.281 c -0.794,0.095 -1.615,-0.172 -2.213,-0.795 -1.018,-1.051 -0.988,-2.729 0.064,-3.744 l 5.764,-5.574 c 1.055,-1.02 2.73,-0.991 3.744,0.066 1.018,1.054 0.986,2.73 -0.064,3.75 l -5.769,5.574 c -0.431,0.419 -0.97,0.659 -1.526,0.723 z"
         id="path3563" />
    </g>
    <g
       transform="matrix(4.05716,0,0,4.05716,337.00956,400.93161)"
       id="g3565">
      <path
         inkscape:connector-curvature="0"
         d="m 65.094,72.1 c -0.895,0.104 -1.827,-0.201 -2.493,-0.91 -1.113,-1.188 -1.059,-3.054 0.129,-4.164 l 7.834,-7.353 c 1.188,-1.108 3.049,-1.056 4.166,0.128 1.112,1.193 1.057,3.055 -0.129,4.174 l -7.838,7.35 c -0.478,0.445 -1.069,0.7 -1.669,0.775 z"
         id="path3567" />
    </g>
    <path
       inkscape:connector-curvature="0"
       d="M 432.59223,587.59343 364.67128,529.8357 c -7.05946,-6.00865 -17.65271,-5.14853 -23.6573,1.90687 -6.01677,7.06757 -5.15665,17.66081 1.90686,23.66541 l 67.90879,57.75367 c 3.01041,2.56007 6.6578,3.87459 10.32141,3.98819 4.93351,0.16229 9.89542,-1.846 13.34806,-5.90316 6.0046,-7.04729 5.15259,-17.64459 -1.90687,-23.65325 z"
       id="path3569" />
    <path
       inkscape:connector-curvature="0"
       d="m 569.85002,585.29708 c -26.80972,-11.37222 -42.10521,-28.22566 -48.30049,-35.08226 -2.44242,-2.69801 -3.89082,-6.42249 -4.42637,-10.41879 l -25.89279,-19.79894 5.10796,-6.00865 c 1.9515,1.52954 4.23568,2.37749 6.54826,2.45458 3.29036,0.1136 6.601,-1.22932 8.90141,-3.93545 4.00441,-4.71036 3.43641,-11.76982 -1.27395,-15.77829 l -67.9128,-57.75368 c -4.71442,-4.00441 -11.77388,-3.4283 -15.77424,1.26989 -4.01253,4.71848 -3.43236,11.77794 1.26989,15.78236 l 0.29617,0.25154 -41.00977,48.21935 -0.53149,-0.45035 c -4.71442,-4.00036 -11.77392,-3.42018 -15.77428,1.27801 -4.00441,4.71442 -3.43235,11.77388 1.26989,15.77829 l 67.90879,57.76179 c 2.01235,1.69995 4.44259,2.57224 6.88094,2.65338 3.29036,0.10955 6.59289,-1.22932 8.90141,-3.93544 3.84619,-4.52374 3.43236,-11.20588 -0.79114,-15.27115 l 7.14871,-8.27661 74.87083,58.73145 23.9129,-22.43609 c 2.49921,-2.34504 5.47717,-3.99631 8.67016,-5.03494 z"
       id="path3575" />
    <path
       inkscape:connector-curvature="0"
       d="m 517.91837,488.25793 c 3.01041,2.56006 6.6578,3.87864 10.31735,3.99224 4.93351,0.16635 9.89948,-1.84195 13.344,-5.90317 6.00054,-7.06757 5.15665,-17.65676 -1.91498,-23.66135 l -67.90468,-57.74962 c -7.05946,-6.00865 -17.65676,-5.15259 -23.66136,1.90281 -6.00865,7.07163 -5.15259,17.66487 1.90687,23.67353 l 67.9128,57.74556 z"
       id="path3577" />
    <path
       inkscape:connector-curvature="0"
       d="m 673.66463,560.68635 c -17.55128,-16.88185 -38.18599,-16.25299 -54.78789,-15.7499 -3.03476,0.0852 -5.93969,0.14606 -8.57278,0.15823 -19.23094,-0.142 -55.6967,-9.38015 -73.06134,-16.93864 -4.28842,-1.87441 -6.09791,-0.34892 -7.1974,1.18063 -2.79944,3.90705 -2.48298,10.84479 -0.19069,13.36834 7.97638,8.84461 32.24631,35.71113 79.12274,41.51287 l 3.46481,0.426 1.13601,3.31064 c 0.12171,0.35297 6.92963,19.41351 21.95735,36.52255 10.99896,12.52851 26.40399,23.99405 46.83991,26.3188 3.33093,0.38543 6.80386,0.52337 10.40661,0.38543 l 0.21909,5.58671 0.20692,5.45282 31.60121,23.36925 c 2.05293,1.34697 5.74494,4.71847 7.41649,6.39408 l 0.004,-100.22402 c -10.89347,-3.15242 -39.54514,-12.76383 -58.5651,-31.07379 z"
       id="path3579" />
    <path
       inkscape:connector-curvature="0"
       d="m 728.93532,709.96549 c -0.41383,-1.89875 -1.11167,-3.70418 -1.96367,-5.46093 -0.93315,-1.91904 -2.14624,-3.70013 -3.5987,-5.33111 -1.43623,-1.62287 -3.03476,-3.1443 -4.95379,-4.38174 l -39.30577,-29.05738 -4.3371,3.1727 c 3.63927,8.19141 2.10566,18.11928 -4.70631,24.72028 l -8.67015,8.36992 -4.65356,4.49533 0.8236,0.64103 8.62958,6.77546 24.29022,19.05243 c 11.18153,7.0554 28.02686,5.08362 35.17152,-6.02489 2.56818,-3.9963 3.74881,-8.47135 3.76504,-12.89771 -0.0649,-1.3632 -0.20691,-2.73452 -0.49091,-4.07339 z"
       id="path3581" />
  </g>
</svg>
