<?xml version="1.0" encoding="utf-8"?>
<!-- Generator: Adobe Illustrator 16.0.0, SVG Export Plug-In . SVG Version: 6.00 Build 0)  -->
<!DOCTYPE svg PUBLIC "-//W3C//DTD SVG 1.1//EN" "http://www.w3.org/Graphics/SVG/1.1/DTD/svg11.dtd">
<svg version="1.1" id="Layer_1" xmlns="http://www.w3.org/2000/svg" xmlns:xlink="http://www.w3.org/1999/xlink" x="0px" y="0px"
	 width="30px" height="20px" viewBox="0 0 30 20" enable-background="new 0 0 30 20" xml:space="preserve">
<path fill-rule="evenodd" clip-rule="evenodd" fill="#7E1416" d="M0,0c9.999,0,20.001,0,30,0c0,3.333,0,6.667,0,10
	c-0.666,0-1.334,0-2,0c0-2.667,0-5.333,0-8C19.334,2,10.666,2,2,2c0,6,0,12,0,18c-0.667,0-1.333,0-2,0C0,13.334,0,6.666,0,0z"/>
<path fill-rule="evenodd" clip-rule="evenodd" fill="#7E1416" d="M4,4c7.333,0,14.668,0,22,0c0,4,0,8,0,12c-0.666,0-1.334,0-2,0
	c0-3.333,0-6.667,0-10c-3.333,0-6.667,0-10,0c0,2,0,4,0,6c-0.667,0-1.333,0-2,0c0-2,0-4,0-6c-2,0-4,0-6,0c0,3.333,0,6.667,0,10
	c-0.667,0-1.333,0-2,0C4,12,4,8,4,4z"/>
<path fill-rule="evenodd" clip-rule="evenodd" fill="#7E1416" d="M8,8c0.667,0,1.333,0,2,0c0,2,0,4,0,6c3.333,0,6.667,0,10,0
	c0-1.333,0-2.667,0-4c-0.666,0-1.334,0-2,0c0,0.667,0,1.334,0,2c-0.666,0-1.334,0-2,0c0-1.333,0-2.667,0-4c2,0,4,0,6,0
	c0,2.667,0,5.334,0,8c-4.666,0-9.334,0-14,0C8,13.334,8,10.667,8,8z"/>
<path fill-rule="evenodd" clip-rule="evenodd" fill="#7E1416" d="M28,12c0.666,0,1.334,0,2,0c0,2.666,0,5.334,0,8
	c-8.666,0-17.334,0-26,0c0-0.666,0-1.334,0-2c7.999,0,16.001,0,24,0C28,16,28,14,28,12z"/>
</svg>
