<?xml version="1.0" encoding="UTF-8" standalone="no"?>
<!-- Created with Inkscape (http://www.inkscape.org/) -->

<svg
   xmlns:dc="http://purl.org/dc/elements/1.1/"
   xmlns:cc="http://creativecommons.org/ns#"
   xmlns:rdf="http://www.w3.org/1999/02/22-rdf-syntax-ns#"
   xmlns:svg="http://www.w3.org/2000/svg"
   xmlns="http://www.w3.org/2000/svg"
   xmlns:sodipodi="http://sodipodi.sourceforge.net/DTD/sodipodi-0.dtd"
   xmlns:inkscape="http://www.inkscape.org/namespaces/inkscape"
   width="550.77423"
   height="661.86584"
   id="svg2"
   version="1.1"
   inkscape:version="0.48.4 r9939"
   sodipodi:docname="database_disposal.svg">
  <defs
     id="defs4" />
  <sodipodi:namedview
     id="base"
     pagecolor="#ffffff"
     bordercolor="#666666"
     borderopacity="1.0"
     inkscape:pageopacity="0.0"
     inkscape:pageshadow="2"
     inkscape:zoom="1"
     inkscape:cx="325.06387"
     inkscape:cy="439.96354"
     inkscape:document-units="px"
     inkscape:current-layer="layer1"
     showgrid="false"
     inkscape:window-width="1252"
     inkscape:window-height="1023"
     inkscape:window-x="737"
     inkscape:window-y="284"
     inkscape:window-maximized="0"
     fit-margin-top="0"
     fit-margin-left="0"
     fit-margin-right="0"
     fit-margin-bottom="0" />
  <metadata
     id="metadata7">
    <rdf:RDF>
      <cc:Work
         rdf:about="">
        <dc:format>image/svg+xml</dc:format>
        <dc:type
           rdf:resource="http://purl.org/dc/dcmitype/StillImage" />
        <dc:title></dc:title>
      </cc:Work>
    </rdf:RDF>
  </metadata>
  <g
     inkscape:label="Layer 1"
     inkscape:groupmode="layer"
     id="layer1"
     transform="translate(-75.650409,-305.35783)">
    <g
       id="data"
       transform="matrix(0.68326472,-5.1899105,5.1899105,0.68326472,306.74378,639.36521)">
      <path
         id="path2987"
         d="M 16,0 C 9.256,0 2,2.033 2,6.5 v 19 c 0,4.465 7.256,6.5 14,6.5 6.743,0 14,-2.035 14,-6.5 V 6.5 C 30,2.033 22.742,0 16,0 z M 28,25.5 C 28,27.984 22.627,30 16,30 9.372,30 4,27.984 4,25.5 V 21.764 C 6.066,23.893 11.05,25 16,25 c 4.95,0 9.934,-1.107 12,-3.236 V 25.5 z m 0,-6 H 27.996 C 27.996,19.51 28,19.521 28,19.531 28,22 22.627,24 16,24 9.373,24 4,22 4,19.531 4,19.521 4.004,19.51 4.004,19.5 H 4 V 15.764 C 6.066,17.893 11.05,19 16,19 c 4.95,0 9.934,-1.107 12,-3.236 V 19.5 z m 0,-6 H 27.996 C 27.996,13.51 28,13.521 28,13.531 28,16 22.627,18 16,18 9.373,18 4,16 4,13.531 4,13.521 4.004,13.51 4.004,13.5 H 4 V 10.064 C 6.621,12.061 11.425,13 16,13 c 4.575,0 9.379,-0.939 12,-2.936 V 13.5 z M 16,11 C 9.372,11 4,8.984 4,6.5 4,4.014 9.372,2 16,2 22.627,2 28,4.014 28,6.5 28,8.984 22.627,11 16,11 z"
         inkscape:connector-curvature="0"
         style="fill:#000000" />
      <circle
         id="circle2989"
         r="1"
         cy="26"
         cx="25"
         sodipodi:cx="25"
         sodipodi:cy="26"
         sodipodi:rx="1"
         sodipodi:ry="1"
         style="fill:#000000"
         d="m 26,26 c 0,0.552285 -0.447715,1 -1,1 -0.552285,0 -1,-0.447715 -1,-1 0,-0.552285 0.447715,-1 1,-1 0.552285,0 1,0.447715 1,1 z" />
      <circle
         id="circle2991"
         r="1"
         cy="20"
         cx="25"
         sodipodi:cx="25"
         sodipodi:cy="20"
         sodipodi:rx="1"
         sodipodi:ry="1"
         style="fill:#000000"
         d="m 26,20 c 0,0.552285 -0.447715,1 -1,1 -0.552285,0 -1,-0.447715 -1,-1 0,-0.552285 0.447715,-1 1,-1 0.552285,0 1,0.447715 1,1 z" />
      <circle
         id="circle2993"
         r="1"
         cy="14"
         cx="25"
         sodipodi:cx="25"
         sodipodi:cy="14"
         sodipodi:rx="1"
         sodipodi:ry="1"
         style="fill:#000000"
         d="m 26,14 c 0,0.552285 -0.447715,1 -1,1 -0.552285,0 -1,-0.447715 -1,-1 0,-0.552285 0.447715,-1 1,-1 0.552285,0 1,0.447715 1,1 z" />
    </g>
    <g
       id="g3024"
       transform="matrix(6.6370431,0,0,6.6370431,28.390773,303.51937)">
      <g
         display="none"
         id="Layer_1"
         style="display:none" />
      <g
         id="Layer_2">
        <path
           id="path3012"
           d="m 60.975,25.657 c -0.077,0 -0.165,0 -0.242,-0.012 -1.032,-0.126 -1.764,-1.084 -1.638,-2.119 0,-0.012 0.012,-0.025 0.012,-0.037 0.152,-0.996 1.059,-1.728 2.106,-1.589 1.034,0.126 1.766,1.071 1.64,2.106 -0.127,0.946 -0.933,1.651 -1.878,1.651 l 0,0 z m 1.751,-6.038 c -0.252,0 -0.491,-0.051 -0.731,-0.152 -0.958,-0.404 -1.411,-1.513 -1.02,-2.471 0.389,-0.946 1.524,-1.413 2.47,-1.022 0.468,0.189 0.832,0.555 1.021,1.022 0.201,0.466 0.201,0.983 0,1.45 -0.289,0.705 -0.983,1.173 -1.74,1.173 l 0,0 z m 3.051,-5.511 c -0.402,0 -0.782,-0.126 -1.11,-0.354 -0.403,-0.302 -0.681,-0.743 -0.755,-1.235 -0.077,-0.505 0.035,-1.008 0.34,-1.412 0.591,-0.807 1.828,-1.009 2.647,-0.416 0.402,0.302 0.668,0.731 0.757,1.235 0.075,0.504 -0.051,0.996 -0.341,1.413 -0.364,0.479 -0.932,0.769 -1.538,0.769 l 0,0 z m 4.351,-4.539 c -0.581,0 -1.11,-0.252 -1.477,-0.707 -0.314,-0.39 -0.467,-0.882 -0.403,-1.387 0.051,-0.504 0.304,-0.958 0.692,-1.273 0.782,-0.631 2.031,-0.492 2.661,0.29 0.315,0.392 0.455,0.883 0.404,1.387 -0.05,0.504 -0.302,0.958 -0.693,1.273 -0.34,0.266 -0.756,0.417 -1.184,0.417 l 0,0 z m 5.37,-3.265 c -0.744,0 -1.425,-0.442 -1.728,-1.123 -0.429,-0.958 0,-2.08 0.945,-2.497 0.945,-0.416 2.094,0.025 2.51,0.958 0.403,0.934 0,2.031 -0.92,2.472 -0.014,0 -0.025,0.013 -0.038,0.025 -0.252,0.102 -0.505,0.165 -0.769,0.165 l 0,0 z m 6.015,-1.84 c -0.921,0 -1.703,-0.656 -1.867,-1.551 -0.088,-0.504 0.027,-1.009 0.316,-1.425 0.278,-0.417 0.719,-0.694 1.21,-0.782 1.085,-0.189 2.018,0.516 2.193,1.525 0.189,1.034 -0.49,2.017 -1.525,2.206 -0.113,0.013 -0.227,0.027 -0.327,0.027 l 0,0 z M 87.79,4.06 c -0.012,0 -0.1,0 -0.1,-0.012 -1.047,-0.051 -1.841,-0.946 -1.791,-1.98 0.05,-1.009 0.883,-1.791 1.879,-1.791 0.618,0.025 1.071,0.252 1.412,0.619 0.341,0.378 0.518,0.869 0.492,1.374 -0.063,0.995 -0.883,1.79 -1.892,1.79 l 0,0 z"
           inkscape:connector-curvature="0" />
        <path
           id="path3014"
           d="m 83.375,72.729 c -3.056,-3.131 -5.842,-5.05 -7.51,-8.484 -2.384,-4.905 -0.21,-12.323 -0.21,-12.323 0,0 0.279,-0.672 -0.277,-0.941 -0.573,-0.278 -0.975,0.335 -0.975,0.335 0,0 -6.328,6.532 -5.634,14.345 0.662,7.447 5.756,10.957 4.592,16.967 -1.254,6.464 -8.347,11.312 -8.347,11.312 0,0 7.866,-8.001 2.894,-17.949 -3.625,-7.249 -12.215,-10.6 -12.215,-10.6 0,0 -0.903,-0.54 -1.25,-0.137 -0.348,0.406 0.138,1.213 0.138,1.213 0,0 6.052,7.071 4.173,15.353 -1.039,4.576 -5.843,10.1 -5.843,10.1 0,0 6.886,-7.877 0.835,-16.766 -1.494,-2.192 -3.408,-6.419 -2.922,-11.11 0.627,-6.062 8.625,-8.955 8.625,-8.955 0,0 0.657,-0.269 0.627,-0.673 -0.041,-0.54 -0.694,-0.473 -0.694,-0.473 0,0 -9.601,-0.405 -15.86,8.282 -3.415,4.736 -2.921,10.302 -7.095,14.344 -4.595,4.446 -10.225,6.059 -10.225,6.059 0,0 9.072,-9.084 9.599,-20.807 0.417,-9.293 -5.217,-18.989 -5.217,-18.989 0,0 -0.841,-1.305 -1.46,-1.211 -0.902,0.136 -0.625,1.414 -0.625,1.414 0,0 1.675,11.081 -2.715,15.958 C 21.545,63.708 9.025,67.002 7.423,78.79 5.337,94.142 14.726,100 14.726,100 h 21.451 c -0.841,-3.52 -1.016,-7.165 -0.027,-10.032 1.946,-5.657 7.512,-10.1 7.512,-10.1 0,0 -3.649,5.344 -2.94,11.254 0.404,3.366 1.891,7.17 5.728,8.878 h 21.403 c 2.045,-1.179 4.965,-3.206 6.688,-4.781 4.715,-4.308 5.766,-8.615 5.766,-8.615 0,0 1.575,2.941 0,7.459 C 79.352,96.8 77.598,98.42 76.145,100 h 9.415 c 0,0 11.557,-13.188 -2.185,-27.271 z"
           inkscape:connector-curvature="0" />
        <path
           id="path3016"
           d="m 82.203,63.494 c -0.538,-4.52 2.558,-8.651 7.03,-9.604 -1.122,-0.536 -2.399,-0.737 -3.729,-0.62 -3.932,0.351 -6.762,3.759 -6.319,7.49 0.259,2.185 1.899,4.063 3.655,5.106 -0.316,-0.739 -0.538,-1.533 -0.637,-2.372 z"
           inkscape:connector-curvature="0" />
      </g>
    </g>
  </g>
</svg>
