<?xml version="1.0" encoding="utf-8"?>
<!-- Generator: THE MOFUGGEN GIMP -->
<!DOCTYPE svg PUBLIC "-//W3C//DTD SVG 1.1//EN" "http://www.w3.org/Graphics/SVG/1.1/DTD/svg11.dtd">
<svg version="1.1" xmlns="http://www.w3.org/2000/svg" xmlns:xlink="http://www.w3.org/1999/xlink" x="0px" y="0px" width="230px"
     height="330px" viewBox="0 0 230 330" enable-background="new 0 0 230 330" xml:space="preserve">
<g id="Background_xA0_Image_1_" display="none">
    <image display="inline" overflow="visible" width="230" height="330" id="Background_xA0_Image" xlink:href="68EF92A5.jpg" >
    </image>
</g>
<g id="Layer_1_xA0_Image_1_">
    <g>
        <g>
            <path fill-rule="evenodd" clip-rule="evenodd" fill="#800000" d="M209.514,309.566c-23.195,0-45.896,0-69.056,0
                c0-9.802,0-19.175,0-29.391c12.999,0,25.721,0,38.983,0c0-76.974,0-153.109,0-230.065c-52.981,0-105.678,0-158.905,0
                c0-10.182,0-19.557,0-29.524c62.877,0,125.684,0,188.977,0C209.514,116.821,209.514,212.832,209.514,309.566z"/>
            <path fill-rule="evenodd" clip-rule="evenodd" fill="#800000" d="M169.496,269.587c-36.482,0-72.51,0-109.018,0
                c0-9.779,0-19.151,0-29.359c26.269,0,52.312,0,78.932,0c0-23.645,0-46.464,0-70.124c-12.944,0-25.664,0-38.887,0
                c0-10.202,0-19.575,0-29.971c12.917,0,25.764,0,39.027,0c0-17.051,0-33.087,0-49.955c-26.349,0-52.391,0-78.986,0
                c0-10.315,0-19.806,0-29.739c36.369,0,72.398,0,108.932,0C169.496,130.121,169.496,199.471,169.496,269.587z"/>
            <path fill-rule="evenodd" clip-rule="evenodd" fill="#800000" d="M49.807,280.035c27.206,0,53.253,0,79.738,0
                c0,10.208,0,19.581,0,29.461c-36.352,0-72.386,0-108.983,0c0-82.963,0-165.771,0-249.037c9.674,0,19.047,0,29.245,0
                C49.807,133.457,49.807,206.153,49.807,280.035z"/>
            <path fill-rule="evenodd" clip-rule="evenodd" fill="#800000" d="M90.389,129.811c0,23.777,0,46.362,0,69.556
                c2.963,0,5.792,0,9.46,0c0-6.155,0-12.222,0-18.814c10.191,0,19.565,0,29.551,0c0,16.179,0,32.336,0,48.973
                c-22.932,0-45.636,0-68.871,0c0-42.944,0-85.644,0-128.935c22.891,0,45.712,0,69.004,0c0,9.629,0,19.002,0,29.221
                C116.558,129.811,103.835,129.811,90.389,129.811z"/>
        </g>
    </g>
</g>
</svg>
