<?xml version="1.0" encoding="UTF-8" standalone="no"?>
<!-- Generator: THE MOFUGGEN GIMP -->

<svg
   xmlns:dc="http://purl.org/dc/elements/1.1/"
   xmlns:cc="http://creativecommons.org/ns#"
   xmlns:rdf="http://www.w3.org/1999/02/22-rdf-syntax-ns#"
   xmlns:svg="http://www.w3.org/2000/svg"
   xmlns="http://www.w3.org/2000/svg"
   xmlns:sodipodi="http://sodipodi.sourceforge.net/DTD/sodipodi-0.dtd"
   xmlns:inkscape="http://www.inkscape.org/namespaces/inkscape"
   version="1.1"
   x="0px"
   y="0px"
   width="189.0005"
   height="289"
   id="svg3055"
   inkscape:version="0.48.3.1 r9886"
   sodipodi:docname="olegdb_logo.svg">
  <metadata
     id="metadata3069">
    <rdf:RDF>
      <cc:Work
         rdf:about="">
        <dc:format>image/svg+xml</dc:format>
        <dc:type
           rdf:resource="http://purl.org/dc/dcmitype/StillImage" />
      </cc:Work>
    </rdf:RDF>
  </metadata>
  <defs
     id="defs3067" />
  <sodipodi:namedview
     pagecolor="#ffffff"
     bordercolor="#666666"
     borderopacity="1"
     objecttolerance="10"
     gridtolerance="10"
     guidetolerance="10"
     inkscape:pageopacity="0"
     inkscape:pageshadow="2"
     inkscape:window-width="1658"
     inkscape:window-height="1205"
     id="namedview3065"
     showgrid="false"
     inkscape:zoom="2.8606061"
     inkscape:cx="143.33772"
     inkscape:cy="160.36785"
     inkscape:window-x="437"
     inkscape:window-y="131"
     inkscape:window-maximized="0"
     inkscape:current-layer="svg3055"
     fit-margin-top="0"
     fit-margin-left="0"
     fit-margin-right="0"
     fit-margin-bottom="0" />
  <path
     d="m 189.0005,289 c -23.195,0 -45.8405,0 -69.0005,0 0,-9.802 0,-18.784 0,-29 12.999,0 25.738,0 39,0 0,-76.974 0,-153.044 0,-230 C 106.019,30 53.227,30 0,30 0,19.818 0,9.967 0,0 c 62.877,0 125.7065,0 188.9995,0 10e-4,96.235 10e-4,192.266 10e-4,289 z"
     id="path3057"
     inkscape:connector-curvature="0"
     style="fill:#800000"
     sodipodi:nodetypes="ccccccccc" />
  <path
     d="m 149,249 c -36.482,0 -72.535,0 -109.043,0 0,-9.779 0,-18.792 0,-29 26.269,0 52.353,0 78.973,0 0,-23.645 0,-46.34 0,-70 -12.944,0 -25.707,0 -38.93,0 0,-10.202 0,-19.604 0,-30 12.917,0 25.807,0 39.07,0 0,-17.051 0,-33.132 0,-50 -26.349,0 -52.475,0 -79.07,0 0,-10.315 0,-20.067 0,-30 36.369,0 72.466,0 109,0 0,69.682 0,138.884 0,209 z"
     id="path3059"
     inkscape:connector-curvature="0"
     style="fill:#800000"
     sodipodi:nodetypes="ccccccccccccc" />
  <path
     d="m 29,260 c 27.206,0 53.515,0 80,0 0,10.208 0,19.12 0,29 -36.352,0 -72.403,0 -109,0 0,-82.963 0,-165.734 0,-249 9.674,0 18.802,0 29,0 0,72.998 0,146.118 0,220 z"
     id="path3061"
     inkscape:connector-curvature="0"
     style="fill:#800000"
     sodipodi:nodetypes="ccccccc" />
  <path
     d="m 70,108.9995 c 0,23.777 0,46.8065 0,70.0005 2.963,0 6.332,0 10,0 0,-6.155 0,-12.408 0,-19 10.191,0 18.9475,0 28.9335,0 0,16.179 0,32.363 0,49 -22.932,0 -45.6985,0 -68.9335,0 0,-42.944 0,-85.709 0,-129 22.891,0 45.708,0 69,0 0,9.629 0,18.7815 0,29.0005 -12.975,-0.001 -25.554,-0.001 -39,-0.001 z"
     id="path3063"
     inkscape:connector-curvature="0"
     style="fill:#800000"
     sodipodi:nodetypes="ccccccccccc" />
</svg>
