<?xml version="1.0" encoding="utf-8"?>
<!-- Generator: Adobe Illustrator 16.0.0, SVG Export Plug-In . SVG Version: 6.00 Build 0)  -->
<!DOCTYPE svg PUBLIC "-//W3C//DTD SVG 1.1//EN" "http://www.w3.org/Graphics/SVG/1.1/DTD/svg11.dtd">
<svg version="1.1" id="Layer_1" xmlns="http://www.w3.org/2000/svg" xmlns:xlink="http://www.w3.org/1999/xlink" x="0px" y="0px"
	 width="100px" height="100px" viewBox="0 0 100 100" enable-background="new 0 0 100 100" xml:space="preserve">
<path fill-rule="evenodd" clip-rule="evenodd" fill="#7E1416" d="M0,0c33.33,0,66.67,0,100,0c0,33.33,0,66.67,0,100
	c-13.334,0-26.667,0-40,0c0-2.221,0-4.447,0-6.666c11.11,0,22.224,0,33.334,0c0-28.888,0-57.78,0-86.667
	c-31.107,0-62.226,0-93.334,0C0,4.445,0,2.221,0,0z"/>
<path fill-rule="evenodd" clip-rule="evenodd" fill="#7E1416" d="M0,13.333c2.221,0,4.445,0,6.667,0c0,26.664,0,53.337,0,80.001
	c15.553,0,31.113,0,46.666,0c0,2.219,0,4.445,0,6.666c-17.776,0-35.557,0-53.333,0C0,71.113,0,42.22,0,13.333z"/>
<path fill-rule="evenodd" clip-rule="evenodd" fill="#7E1416" d="M13.333,13.333c24.442,0,48.894,0,73.333,0
	c0,24.442,0,48.894,0,73.333c-24.439,0-48.891,0-73.333,0c0-2.219,0-4.445,0-6.666C35.554,80,57.78,80,80,80
	c0-11.11,0-22.224,0-33.333c-17.776,0-35.557,0-53.333,0c0-2.222,0-4.446,0-6.667C44.443,40,62.224,40,80,40c0-6.667,0-13.333,0-20
	c-22.22,0-44.446,0-66.667,0C13.333,17.778,13.333,15.555,13.333,13.333z"/>
<path fill-rule="evenodd" clip-rule="evenodd" fill="#7E1416" d="M13.333,26.667c19.999,0,40,0,60,0c0,2.221,0,4.445,0,6.666
	c-17.776,0-35.557,0-53.333,0c0,11.11,0,22.224,0,33.334c15.554,0,31.113,0,46.667,0c0-2.221,0-4.447,0-6.667
	c-13.334,0-26.668,0-40,0c0-2.22,0-4.446,0-6.667c15.553,0,31.113,0,46.666,0c0,6.667,0,13.334,0,20c-20,0-40.001,0-60,0
	C13.333,57.78,13.333,42.22,13.333,26.667z"/>
</svg>
